<svg xmlns="http://www.w3.org/2000/svg" viewBox="0 0 64 64" role="img" aria-label="Palta">
  <defs>
    <radialGradient id="skin" cx="35%" cy="28%" r="85%">
      <stop offset="0%" stop-color="#3f7f3d"/>
      <stop offset="48%" stop-color="#2b5c2c"/>
      <stop offset="100%" stop-color="#14301a"/>
    </radialGradient>
    <radialGradient id="sheen" cx="38%" cy="30%" r="55%">
      <stop offset="0%" stop-color="#ffffff" stop-opacity="0.35"/>
      <stop offset="100%" stop-color="#ffffff" stop-opacity="0"/>
    </radialGradient>
  </defs>

  <ellipse cx="32" cy="54" rx="17" ry="3.2" fill="#0a140b" opacity="0.35"/>

  <path d="M32 5 C26 5 20 9 17 16 C14 23 12.6 30 14.2 36.5 C16 45 23 51 32 51 C41 51 48 45 49.8 36.5 C51.4 30 50 23 47 16 C44 9 38 5 32 5 Z" fill="url(#skin)"/>
  <path d="M32 5 C26 5 20 9 17 16 C14 23 12.6 30 14.2 36.5 C16 45 23 51 32 51 C41 51 48 45 49.8 36.5 C51.4 30 50 23 47 16 C44 9 38 5 32 5 Z" fill="url(#sheen)"/>

  <ellipse cx="32" cy="48" rx="13.5" ry="4" fill="#0d2010" opacity="0.55"/>

  <path d="M32 6.2 C34.4 6 36.4 6.6 38 7.6 L36.4 12.2 C35 11.4 33.4 11 32 11 C30.6 11 29 11.4 27.6 12.2 L26 7.6 C27.6 6.6 29.6 6 32 6.2 Z" fill="#0d2010" opacity="0.5"/>

  <rect x="30" y="2.8" width="4" height="6" rx="2" fill="#4a3a24"/>
  <ellipse cx="32" cy="3.1" rx="1.5" ry="1.3" fill="#332818"/>

  <circle cx="20" cy="26" r="1" fill="#0d2010" opacity="0.25"/>
  <circle cx="44" cy="31" r="1.1" fill="#0d2010" opacity="0.2"/>
  <circle cx="38" cy="41" r="0.9" fill="#0d2010" opacity="0.25"/>
  <circle cx="25" cy="40" r="0.7" fill="#0d2010" opacity="0.2"/>
</svg>